<svg xmlns="http://www.w3.org/2000/svg" width="15.497" height="10.333" viewBox="0 0 15.497 10.333"><defs><style>.a{fill:#ffc107;}.b{fill:#ffa000;}.c{fill:#ffd54f;}</style></defs><g transform="translate(0 -85.296)"><path class="a" d="M14.208,86.588a1.292,1.292,0,0,0-1.292,1.292,1.278,1.278,0,0,0,.065.4l-1.048.666A1.615,1.615,0,0,1,9.816,88.6L8.789,87.348a1.277,1.277,0,0,0,.252-.761,1.292,1.292,0,0,0-2.583,0,1.277,1.277,0,0,0,.252.761L5.683,88.6a1.614,1.614,0,0,1-2.116.339l-1.048-.666a1.276,1.276,0,0,0,.065-.4,1.292,1.292,0,1,0-1.4,1.286l.763,4.579a.323.323,0,0,0,.318.27H13.239a.323.323,0,0,0,.318-.27l.763-4.579a1.292,1.292,0,0,0-.113-2.578Z" transform="translate(0 0)"/><ellipse class="b" cx="5.489" cy="1.615" rx="5.489" ry="1.615" transform="translate(2.26 92.077)"/><path class="c" d="M69.812,302.5c-2.889,0-5.812-.665-5.812-1.937s2.924-1.937,5.812-1.937,5.812.665,5.812,1.937S72.7,302.5,69.812,302.5Zm0-3.229c-3.392,0-5.166.84-5.166,1.292s1.775,1.292,5.166,1.292,5.166-.84,5.166-1.292S73.2,299.275,69.812,299.275Z" transform="translate(-62.063 -206.875)"/></g></svg>