<svg xmlns="http://www.w3.org/2000/svg" width="14.805" height="21.154" viewBox="0 0 14.805 21.154"><defs><style>.a{fill:#013436;}</style></defs><path class="a" d="M33.912,78.606H25.137a3.017,3.017,0,0,1-3.012-3.018v-7.3a3.013,3.013,0,0,1,3.012-3.012h8.775a3.017,3.017,0,0,1,3.018,3.012v7.3A3.022,3.022,0,0,1,33.912,78.606ZM25.137,67.849a.437.437,0,0,0-.438.438v7.3a.442.442,0,0,0,.438.443h8.775a.443.443,0,0,0,.443-.443v-7.3a.438.438,0,0,0-.443-.438Z" transform="translate(-22.125 -57.452)"/><path class="a" d="M24.908,72.864H22.333V70.089a6.329,6.329,0,1,1,12.657,0H32.416a3.754,3.754,0,1,0-7.508,0Z" transform="translate(-21.262 -63.755)"/></svg>