<svg xmlns="http://www.w3.org/2000/svg" width="35.947" height="39.145" viewBox="0 0 35.947 39.145"><defs><style>.a{fill:#ffd15c;}.b{fill:#40596b;}.c{fill:#f8b64c;}.d{fill:#fff;}</style></defs><g transform="translate(-20.75)"><circle class="a" cx="15.542" cy="15.542" r="15.542" transform="translate(23.146 0)"/><g transform="translate(20.75 24.589)"><path class="b" d="M26.1,319.7l-5.348,9.27,6.242-.331,2.836,5.571,4.947-8.577A15.526,15.526,0,0,1,26.1,319.7Z" transform="translate(-20.75 -319.654)"/><path class="b" d="M313.7,319.1a15.532,15.532,0,0,1-8.654,5.964l4.962,8.592,2.836-5.571,6.242.331Z" transform="translate(-283.143 -319.1)"/></g><circle class="c" cx="11.266" cy="11.266" r="11.266" transform="translate(27.423 4.277)"/><path class="d" d="M166.675,110.057a.588.588,0,0,0-.324-1l-4.446-.647a.58.58,0,0,1-.439-.324l-1.988-4.03a.588.588,0,0,0-1.056,0l-1.98,4.03a.612.612,0,0,1-.439.324l-4.446.647a.588.588,0,0,0-.324,1l3.213,3.136a.594.594,0,0,1,.17.516l-.755,4.423a.587.587,0,0,0,.855.616l3.976-2.088a.574.574,0,0,1,.547,0l3.976,2.088a.59.59,0,0,0,.855-.616l-.763-4.423a.58.58,0,0,1,.17-.516Z" transform="translate(-120.265 -95.732)"/></g></svg>