<svg xmlns="http://www.w3.org/2000/svg" width="70" height="70.01" viewBox="0 0 70 70.01"><defs><style>.a{fill:#013436;}</style></defs><path class="a" d="M35,0a35,35,0,0,0,0,70.01q1.582,0,3.151-.141c.972-.087,1.935-.22,2.891-.387l.367-.065A35,35,0,0,0,35,0ZM32.193,67.552H32.11c-.908-.08-1.808-.2-2.7-.357-.051-.009-.1-.015-.153-.024q-1.309-.234-2.592-.576l-.207-.053c-.834-.226-1.659-.489-2.472-.781-.084-.03-.169-.057-.254-.088-.8-.293-1.58-.621-2.351-.976-.1-.043-.191-.084-.287-.129-.756-.35-1.5-.744-2.224-1.159l-.309-.174q-1.073-.626-2.1-1.338c-.1-.072-.209-.142-.312-.215-.674-.478-1.331-.986-1.971-1.517L14,60.011V50.174A12.85,12.85,0,0,1,26.837,37.338H43.173A12.85,12.85,0,0,1,56.008,50.174v9.839l-.155.129q-.979.817-2.009,1.546c-.091.064-.183.125-.274.187q-1.041.723-2.133,1.362c-.091.053-.185.1-.275.156-.738.42-1.488.816-2.253,1.174-.088.041-.176.079-.265.117-.777.358-1.567.688-2.37.983-.08.03-.16.055-.234.083-.817.293-1.645.558-2.484.785l-.2.05c-.856.226-1.721.421-2.595.578-.05.009-.1.015-.15.023-.894.156-1.8.277-2.7.358h-.083c-.933.08-1.867.124-2.812.124S33.124,67.633,32.193,67.552Zm26.149-9.7V50.174A15.186,15.186,0,0,0,43.173,35H26.837A15.186,15.186,0,0,0,11.668,50.174v7.674a32.671,32.671,0,1,1,46.673,0Zm0,0"/><path class="a" d="M173.357,64a13.357,13.357,0,1,0,13.357,13.357A13.357,13.357,0,0,0,173.357,64Zm0,24.042a10.685,10.685,0,1,1,10.685-10.685A10.685,10.685,0,0,1,173.357,88.042Zm0,0" transform="translate(-138.352 -53.315)"/></svg>